<svg width="314" height="242" viewBox="0 0 314 242" fill="none" xmlns="http://www.w3.org/2000/svg">
<path d="M313.677 157L313.883 157.528L314 158.055L313.941 158.583L313.619 159.111L313.971 159.639L313.795 160.166L313.531 160.694L313.853 161.222L313.707 161.75L313.736 162.277L313.619 162.805V163.333L313.296 163.831L313.414 164.388L313.326 164.887L313.531 165.444L313.355 165.942L313.208 166.47L313.384 167.027L313.296 167.525L313.648 168.082L313.091 168.581L313.238 169.109L313.12 169.636L312.945 170.135L313.15 170.692L313.296 171.249L312.945 171.747L313.12 172.275L313.208 172.832L313.003 173.33L312.798 173.829L312.651 174.356L312.622 174.884L312.534 175.412L312.681 175.94L312.329 176.438L312.651 177.024L312.505 177.523L312.3 178.021L312.358 178.578L312.475 179.106L311.889 179.575L311.918 180.103L311.684 180.601L311.713 181.129L311.977 181.715L311.86 182.243V182.771L311.801 183.299L311.537 183.768L311.567 184.325L311.449 184.852L311.479 185.38L311.01 185.82L310.746 186.318L311.097 186.934L310.98 187.432L310.57 187.902L310.423 188.4L310.452 188.928L310.599 189.514L309.983 189.925L310.071 190.482L310.101 191.009L310.159 191.566L310.013 192.094L309.954 192.622L309.397 193.032L309.221 193.531L309.309 194.088L309.28 194.616L309.221 195.143L308.84 195.612L308.605 196.081L308.547 196.609L308.488 197.137L308.342 197.665L308.488 198.251L308.4 198.779L308.019 199.219V199.746L307.872 200.274L307.579 200.714L307.257 201.183L307.11 201.681L306.846 202.15L307.052 202.766V203.323L306.407 203.675L306.377 204.203V204.76L306.407 205.346L306.084 205.786L305.82 206.255L305.674 206.753L305.468 207.252L305.087 207.692L305.292 208.307L304.911 208.747L305.087 209.333L304.647 209.744L304.706 210.33L304.178 210.711L304.237 211.298L303.914 211.737L303.651 212.207L303.739 212.793L303.24 213.174L303.152 213.702L302.8 214.142L302.566 214.611L302.742 215.256L302.126 215.549L302.185 216.165L301.892 216.604L301.51 217.015L301.774 217.689L301.246 218.041L301.012 218.51L300.895 219.038L300.748 219.536L300.396 219.976L300.074 220.416L300.191 221.031L299.839 221.471L299.781 221.999L299.487 222.439V223.025L298.784 223.289L298.872 223.934L298.696 224.432L298.549 224.931L298.256 225.37L297.728 225.693L297.846 226.338L297.67 226.836L297.435 227.335L297.201 227.804L296.497 228.038L296.526 228.654L296.057 229.006L296.086 229.592L295.823 230.061L295.324 230.384V231L295.09 231.469L294.533 231.762L294.591 232.378L294.327 232.847L294.063 233.316L293.653 233.668L293.506 234.195L293.331 234.694L292.715 234.958L292.627 235.515V236.13L292.187 236.482L291.894 236.922L291.571 237.332L291.19 237.743L291.161 238.329L291.014 238.857L290.663 239.267L290.223 239.619L290.164 240.206L289.724 240.528L289.138 240.792L289.255 241.496L288.991 241.965L288.669 242.375L288.141 242.668L287.731 243.02V243.665L287.203 243.929L286.968 244.398L286.939 245.043L286.382 245.278L286.411 245.952L285.913 246.245L285.561 246.626L285.503 247.242L284.74 247.359L284.447 247.799L284.242 248.297L283.949 248.737L283.773 249.265L283.245 249.529L283.304 250.203L282.923 250.584L282.278 250.76L282.307 251.435L281.662 251.64L281.486 252.138L281.163 252.578L280.782 252.93L280.753 253.575L280.108 253.751L279.873 254.22L279.404 254.513L279.111 254.953L279.082 255.627L278.378 255.744L278.232 256.272L277.762 256.595V257.269L277.293 257.562L276.766 257.826L276.736 258.5L276.121 258.647L275.827 259.087L275.476 259.468L275.153 259.878L275.007 260.465L274.391 260.641L274.303 261.256L273.717 261.432L273.365 261.843L273.159 262.37L272.866 262.81L272.309 263.015L272.016 263.455L271.488 263.69L271.224 264.159L270.902 264.569L270.492 264.921L270.169 265.331L269.934 265.83L269.26 265.947L268.908 266.328V267.061L268.439 267.325L267.824 267.472L267.589 267.999L267.384 268.527L266.827 268.703L266.358 268.967L265.947 269.319L265.918 270.052L265.566 270.433L265.126 270.755L264.628 270.99L264.247 271.342L264.041 271.899L263.396 271.957L263.221 272.573H262.517L262.194 273.013L262.077 273.658L261.491 273.775L261.315 274.391L260.787 274.596L260.523 275.095L260.025 275.329L259.585 275.593L259.116 275.886L258.618 276.091L258.236 276.472L258.031 277.059L257.533 277.264L257.181 277.675L256.858 278.114L256.272 278.232L255.92 278.642L255.656 279.17L255.129 279.346L254.542 279.463L254.425 280.167L253.663 280.02L253.545 280.753L252.842 280.694L252.607 281.251L252.197 281.574L251.816 281.955L251.376 282.248L251.024 282.688L250.643 283.04L250.115 283.186L249.617 283.392L249.324 283.89L248.825 284.095L248.21 284.183L248.004 284.799H247.359L246.978 285.18L246.656 285.62L246.245 285.972L245.893 286.353L245.16 286.235L244.926 286.851L244.603 287.291L243.929 287.232L243.489 287.555L243.137 287.907L242.698 288.2L242.229 288.493L241.789 288.757L241.29 288.962L240.88 289.314L240.323 289.431L240.118 290.076L239.649 290.34L239.033 290.311L238.681 290.721L238.124 290.838L237.948 291.601L237.303 291.513L236.863 291.806L236.482 292.187L236.101 292.598L235.397 292.48L235.192 293.125L234.489 293.008L234.137 293.418L233.697 293.741L233.199 293.888L232.759 294.21L232.202 294.269L231.762 294.562L231.41 295.002L230.941 295.266L230.472 295.5L230.091 295.911L229.416 295.735L228.977 296.028L228.596 296.497L228.068 296.585L227.775 297.201L227.1 297.054L226.748 297.464L226.25 297.699H225.664L225.37 298.285H224.784L224.256 298.373L223.817 298.666L223.465 299.194L222.878 299.165L222.497 299.634L222.028 299.869L221.471 299.898L221.002 300.132H220.416L220.064 300.602L219.565 300.807L218.95 300.689L218.598 301.246L218.07 301.364L217.601 301.569L217.161 301.862L216.604 301.892L216.047 301.95L215.725 302.595L215.197 302.712L214.787 303.035L214.142 302.859L213.672 303.123L213.115 303.152L212.705 303.504L212.207 303.68L211.796 304.12L211.298 304.266L210.829 304.53L210.33 304.735H209.773L209.304 304.999L208.688 304.765L208.219 305.087L207.721 305.263L207.222 305.439L206.812 305.82L206.196 305.703L205.757 306.025L205.287 306.231L204.73 306.289L204.232 306.436L203.734 306.553L203.206 306.7L202.795 307.11H202.238L201.652 307.052L201.241 307.521L200.655 307.345L200.186 307.609L199.658 307.638L199.219 308.048L198.661 307.99L198.251 308.547L197.753 308.664L197.166 308.547L196.638 308.576L196.14 308.781L195.642 308.987L195.114 309.016L194.674 309.397L194.146 309.514L193.589 309.426L193.003 309.309L192.534 309.544L192.035 309.69L191.566 310.071L190.98 309.925L190.511 310.159L190.042 310.482L189.485 310.394L188.957 310.423L188.371 310.306L187.872 310.452L187.462 311.097L186.875 310.804H186.348L185.82 310.951L185.292 310.892L184.852 311.479L184.325 311.537L183.797 311.567L183.211 311.273L182.712 311.479L182.214 311.625L181.657 311.596L181.158 311.743L180.689 312.153L180.132 312.065L179.575 311.86L179.077 312.065L178.608 312.534L178.051 312.3L177.494 312.241L176.966 312.3L176.467 312.446L175.969 312.681L175.412 312.446L174.884 312.475L174.356 312.505L173.887 313.062L173.33 312.915L172.773 312.651L172.275 312.886L171.776 313.296L171.249 313.414L170.692 313.091L170.193 313.384L169.666 313.414H169.138L168.61 313.296L168.112 313.648L167.555 313.296L167.027 313.59L166.499 313.384L165.971 313.414L165.444 313.355L164.916 313.707L164.418 313.795L163.861 313.619H163.333L162.805 313.824L162.307 313.941L161.75 313.531H161.222L160.694 313.619L160.166 313.765L159.639 313.414L159.111 313.648L158.583 313.59L158.055 314L157.528 313.502H157L156.472 313.56L155.945 313.59L155.417 313.912L154.889 313.502L154.361 313.795L153.834 313.941L153.306 314L152.778 313.883L152.25 313.707L151.723 313.736L151.224 313.326L150.697 313.355L150.139 313.765L149.641 313.443L149.113 313.472L148.586 313.56H148.029L147.501 313.736L147.002 313.355L146.445 313.648L145.947 313.267L145.39 313.59L144.892 313.091L144.364 313.179L143.836 313.15L143.338 312.945L142.781 313.179L142.253 313.238L141.725 312.974L141.168 313.267L140.67 313.062L140.171 312.651L139.644 312.857L139.116 312.651L138.588 312.71L138.06 312.769L137.562 312.329L137.005 312.622L136.477 312.651L136.008 312.153L135.451 312.182L134.953 312.124L134.454 311.83H133.926L133.399 311.772L132.871 311.713L132.343 311.684L131.816 311.655L131.288 311.596L130.76 311.567L130.291 311.185L129.734 311.244L129.235 311.039L128.649 311.42L128.121 311.361L127.652 311.01L127.125 310.951L126.655 310.628L126.04 310.892L125.629 310.335L125.131 310.189L124.545 310.306L123.987 310.452L123.518 310.101L122.991 310.042L122.522 309.749L121.965 309.807L121.378 309.954L120.997 309.25L120.381 309.661L119.971 309.133L119.443 309.045L118.857 309.221L118.388 308.899L117.889 308.723L117.303 308.899L116.922 308.254L116.277 308.635L115.778 308.459L115.339 308.078L114.723 308.254L114.342 307.697H113.785L113.316 307.433L112.729 307.55L112.26 307.315L111.762 307.139L111.205 307.11L110.706 306.934L110.208 306.846L109.739 306.495L109.27 306.319L108.713 306.231L108.273 305.937L107.686 306.025L107.188 305.791L106.748 305.468L106.25 305.322L105.722 305.234L105.165 305.204L104.843 304.53L104.315 304.472L103.816 304.266L103.377 304.002L102.849 303.885L102.321 303.768L101.823 303.651L101.295 303.504L100.797 303.387L100.386 302.947L99.8585 302.8L99.2428 302.976L98.803 302.654L98.2753 302.566L97.8062 302.331L97.3664 302.009L96.9559 301.598L96.4282 301.481L95.8711 301.452L95.3434 301.364L94.845 301.159L94.3466 300.953L93.9361 300.631L93.555 300.191L93.0859 299.956L92.4702 300.015L91.9425 299.898L91.532 299.517L90.975 299.487L90.5938 299.018L90.242 298.549L89.6263 298.608L89.1866 298.344L88.8054 297.875L88.1311 298.051L87.6327 297.875L87.1929 297.611L86.929 296.966L86.3134 296.995L85.9322 296.556L85.4045 296.468L84.9647 296.145L84.437 296.028L84.0558 295.647L83.4108 295.735L83.0883 295.178L82.7072 294.767L82.0622 294.884L81.8276 294.239L81.212 294.21L80.7722 293.946L80.1565 293.976L79.7754 293.565L79.2476 293.448L78.9544 292.891L78.3681 292.832L78.0456 292.304L77.6644 291.953L76.9608 292.099L76.8142 291.337L76.2278 291.249L75.7001 291.102L75.4069 290.604L74.8792 290.457L74.5274 290.018L74.0583 289.754L73.4133 289.783L72.9148 289.578L72.7096 288.933L72.3285 288.552L71.5955 288.728L71.273 288.258L70.9505 287.76L70.5694 287.408H69.9244L69.6312 286.91L69.1621 286.675L68.781 286.294L68.048 286.441L67.7255 285.972L67.4909 285.415L66.8166 285.444L66.67 284.711L65.9078 284.858L65.8198 284.125L65.1748 284.066L64.9402 283.538L64.3832 283.392L63.8261 283.274L63.3277 283.01L63.1225 282.424L62.6827 282.16L62.3895 281.662H61.7152L61.4514 281.163L60.9529 280.929L60.777 280.313L60.2786 280.108L59.8388 279.785L59.3111 279.61L58.9886 279.17L58.4022 279.052L58.285 278.349L57.552 278.407L57.0829 278.144L56.6725 277.821L56.4672 277.235L56.174 276.766H55.4997L55.4411 276.003L54.7081 276.062L54.6495 275.329H53.9458L53.7406 274.772L53.1249 274.684L52.6852 274.362L52.5092 273.775L51.9522 273.599L51.8349 272.925L51.2779 272.778L50.7501 272.544L50.5156 272.045L50.1931 271.606L49.9585 271.107L49.4601 270.873L48.9031 270.667L48.6685 270.14L48.3167 269.759L47.8183 269.524L47.4958 269.114L47.2319 268.615L46.5576 268.556L46.4403 267.941L46.2058 267.413L45.766 267.091L45.2969 266.827L44.6812 266.709L44.5933 266.064L44.2415 265.654L43.6844 265.449L43.6258 264.774L42.9808 264.657L42.6583 264.247L42.2478 263.924L41.8667 263.543L41.6908 262.986L41.3389 262.605L40.6939 262.458L40.5767 261.872L40.0489 261.637L39.961 261.022L39.4332 260.758L39.2573 260.23L38.7296 259.996L38.3191 259.644L38.2019 259.057L37.8794 258.618L37.6448 258.119L36.9119 258.061L36.5307 257.679L36.2669 257.21L36.1496 256.624L35.8271 256.213L35.3873 255.891L35.2114 255.363L34.9182 254.923L34.4784 254.601L33.98 254.308L33.7748 253.809L33.4523 253.399L33.0712 253.018L32.8073 252.578L32.3968 252.226L32.1623 251.728L31.6346 251.464L31.5759 250.848L30.9602 250.672L30.9016 250.027L30.6964 249.529L30.4325 249.089L29.9341 248.796L29.7582 248.268L29.4943 247.799L29.2598 247.33L28.9666 246.89L28.4975 246.597L28.3802 246.011L27.8818 245.717L27.3541 245.424L27.442 244.75L26.7384 244.603L26.4745 244.134L26.1227 243.724L26.0347 243.167L25.6536 242.756L25.4484 242.287L25.0379 241.906V241.29L24.8327 240.792L24.4809 240.382L24.1877 239.971L24.0411 239.414L23.3961 239.209L23.0149 238.828L22.7804 238.359L22.5752 237.86L22.2527 237.42L21.9008 237.039L22.0768 236.306L21.637 235.954L21.4611 235.427L21.0213 235.104L20.5522 234.752L20.4349 234.225L20.1124 233.785L20.1711 233.169L19.702 232.817L19.2622 232.436L19.4674 231.733L18.8224 231.498L18.4999 231.058L18.2947 230.589V229.973L18.1481 229.446L17.679 229.094L17.7963 228.449L17.4151 228.068L16.9754 227.687L16.6235 227.276L16.7115 226.631L16.1544 226.338L16.1251 225.752L15.8319 225.312L15.4215 224.931V224.344L14.9524 223.963L15.0403 223.348L14.8644 222.849L14.5126 222.439L14.4247 221.882L13.809 221.588L13.8676 221.002L13.6624 220.504L13.3985 220.035L13.4865 219.448L13.0467 219.067L12.9587 218.51L12.4017 218.188L12.6949 217.484L11.9326 217.22L12.2844 216.516L11.5514 216.252V215.666L11.4049 215.168L10.9944 214.757L10.9064 214.23L10.9944 213.614L10.8185 213.145L10.3494 212.734L9.99757 212.324L10.2614 211.65L10.1735 211.122L9.85098 210.682V210.125L9.64575 209.627L9.20598 209.245L8.88347 208.776L8.56097 208.337L8.82484 207.692L8.64893 207.193L8.35574 206.753L8.23847 206.226L7.71074 205.844L8.09188 205.17L7.9746 204.642L7.74006 204.173L7.06573 203.821V203.294L6.8605 202.795L6.97778 202.209L6.77255 201.711L6.68459 201.183L6.74323 200.626L6.36209 200.186L6.15686 199.688L5.98095 199.189L5.80504 198.691L5.71709 198.192L5.893 197.577L5.4239 197.166L5.59981 196.58L5.33595 196.111L5.16004 195.612L4.66162 195.173L4.98413 194.557L4.7789 194.058L4.54435 193.589L4.66162 193.003L4.33912 192.563L4.48571 191.977L4.39776 191.449L3.72344 191.068L4.16321 190.423L4.01662 189.925L3.45957 189.514L3.3423 188.986L3.60616 188.4L3.22502 187.931L3.07843 187.432L3.1957 186.875L2.81457 186.406L3.01979 185.82L2.75593 185.351L2.93184 184.765L2.81457 184.266L2.60934 183.768V183.211L2.40411 182.712L2.52138 182.185L2.34547 181.657L2.40411 181.129L1.78842 180.689L2.08161 180.103L1.72979 179.634L1.58319 179.106L1.84706 178.549L1.58319 178.051L1.87638 177.464L1.46592 176.995L1.34865 176.467L1.26069 175.969L1.29001 175.441L1.37796 174.884L1.05546 174.386L0.938189 173.887L1.17274 173.33L1.02614 172.803L0.850233 172.304L1.05546 171.747L1.08478 171.219L0.967507 170.692L0.527731 170.193V169.666L0.791597 169.109L0.586368 168.61L0.410458 168.082L0.674323 167.555L0.469094 167.027L0.586368 166.499L0.55705 165.971L0.674323 165.444L0.527731 164.916L0.351821 164.388L0.469094 163.861L0.0879552 163.333L0.55705 162.805L0.586368 162.277L0.498413 161.75L0.17591 161.222L0.117274 160.694L0 160.166L0.469094 159.639L0.527731 159.111L0.17591 158.583L0.146592 158.055L0 157.528L0.0586368 157L0.381139 156.472L0.0879552 155.945L0.498413 155.417L0.439776 154.889L0.381139 154.361L0.263866 153.834L0.586368 153.306L0.17591 152.778L0.527731 152.25L0.615686 151.723L0.527731 151.195L0.146592 150.667L0.351821 150.139L0.381139 149.612V149.084L0.351821 148.556L0.586368 148.058L0.55705 147.501L0.586368 146.973L0.791597 146.475L0.381139 145.918L0.674323 145.419L0.703642 144.892L0.615686 144.334L0.996825 143.836L0.615686 143.279L1.17274 142.81L0.820915 142.253L0.791597 141.696L0.967507 141.197L1.23137 140.699L0.938189 140.142V139.614L1.26069 139.116L1.34865 138.588L1.40728 138.06L1.70047 137.562L1.67115 137.034L1.34865 136.448L1.84706 135.979L1.81774 135.451L1.61251 134.894L2.05229 134.425L1.7591 133.838L2.34547 133.399L2.40411 132.871L2.02297 132.285L2.14024 131.757L2.16956 131.229L2.25752 130.731L2.37479 130.203L2.40411 129.675L2.5507 129.148L2.99048 128.708L2.69729 128.121L3.22502 127.682L3.40093 127.183L2.93184 126.538L3.07843 126.04L3.40093 125.571L3.69412 125.072L3.72344 124.545L3.69412 124.017L4.13389 123.548L4.10458 123.02L4.36844 122.551L4.10458 121.935L4.54435 121.495L4.69094 120.997L4.74958 120.469L4.69094 119.912L4.89617 119.414L4.83754 118.857L5.24799 118.417L5.45322 117.919L5.13072 117.303L5.62913 116.892L5.86368 116.394L5.71709 115.808L5.95163 115.339L6.15686 114.84L6.39141 114.342L6.42073 113.814L6.47937 113.286L6.80187 112.846L6.83119 112.289L6.8605 111.732L7.03642 111.263L6.94846 110.677L7.50551 110.296L7.47619 109.739L7.9746 109.328L7.88665 108.771L8.17983 108.302L8.32642 107.774L8.20915 107.188L8.53165 106.748L8.91279 106.309L8.67824 105.693L9.26461 105.341L9.20598 104.755L9.17666 104.168L9.46984 103.728L9.79235 103.289L9.76303 102.702L9.82166 102.175L10.3787 101.793L10.5839 101.324L10.8771 100.885L10.6133 100.21L11.2289 99.8878L11.4635 99.4187L11.4928 98.8616L11.6687 98.3632L11.9326 97.8941L12.2844 97.4543L11.9912 96.78L12.6949 96.4868L12.3724 95.7832L12.7242 95.3727L12.9587 94.9036L13.4278 94.5225L13.5451 93.9948L13.721 93.4964L13.8383 92.9686L14.2781 92.5875V92.0011L14.6885 91.62L14.7178 91.0629L14.7765 90.5059L15.3922 90.2127L15.2749 89.5677L15.4508 89.0693L15.8026 88.6295L15.9199 88.1311L16.301 87.7206L16.6235 87.2809L16.9754 86.8704L16.8581 86.2254L17.4444 85.9322L17.7376 85.4924V84.9061L17.8256 84.349L18.3826 84.0558V83.4402L19.0276 83.2056L19.1449 82.6486L19.2329 82.1208L19.5554 81.6811L19.9658 81.2999L19.8486 80.6256L20.2883 80.2738L20.3176 79.6874L20.7574 79.3356L20.992 78.8665L21.3145 78.4267L21.637 78.0163L21.8715 77.5471L22.0768 77.0487L22.5458 76.7262L22.4872 76.0812L22.7218 75.5828L23.1615 75.231L23.572 74.8792L23.7772 74.3808L24.217 74.0289L24.3049 73.4719L24.6275 73.0614L24.8913 72.5923L25.1845 72.1526L25.3018 71.5955L25.8295 71.3023L26.1813 70.8919L26.5038 70.5107L26.5625 69.9244L26.8263 69.4553L27.4127 69.2207V68.5464L28.0577 68.3705L28.175 67.8134L28.2629 67.2271L28.6734 66.8753L29.2304 66.6114L29.5529 66.2009V65.5559L29.8461 65.1162L30.3739 64.8523V64.178L31.0775 64.0607L31.4293 63.6502L31.6932 63.1811L31.8691 62.6827L32.1916 62.243L32.5727 61.8911L33.0418 61.598V60.9236L33.6282 60.7184L33.6868 60.0734L33.8627 59.5457L34.3025 59.2232L34.5664 58.7541L34.8889 58.3436L35.3873 58.0504L35.5046 57.4934L36.3255 57.4641L36.3841 56.8484L36.9412 56.6138L37.293 56.2034L37.5862 55.7929L37.6741 55.1479L37.9966 54.7668L38.3778 54.3856L38.8469 54.0924L39.3453 53.8286L39.6092 53.3595L39.7851 52.8024L40.1076 52.392L40.6646 52.1867L41.0458 51.8056L41.1923 51.2192L41.6321 50.8967L41.896 50.457L42.1599 49.9879L42.5996 49.636L43.0394 49.3429L43.5378 49.079L43.7724 48.5806L44.3294 48.4047V47.6424L44.9744 47.5544L45.0917 46.9094L45.766 46.8801L46.1178 46.4697L46.3231 45.9419L46.6162 45.4728L47.3199 45.4142L47.5838 44.9451L47.8476 44.4467L48.1408 44.0069L48.6392 43.743L48.9617 43.3326L49.3429 42.9808L49.6947 42.5703L50.281 42.453L50.6329 42.0133L51.014 41.6614L51.3072 41.1923L51.6883 40.8405L51.9522 40.3714L52.5972 40.2835L52.7438 39.6678L53.2129 39.4039L53.5647 38.9935L54.2097 38.9348L54.6495 38.6416L55.0013 38.2312L55.2945 37.7621L55.5877 37.293L55.9688 36.9412L56.3793 36.6187L56.7897 36.2375L57.4054 36.1789L57.8745 35.915L58.0211 35.27L58.4902 35.0355L58.9593 34.7423L59.3991 34.4491L59.8388 34.1852L60.1027 33.6282L60.4252 33.1884L60.8063 32.8659L61.598 33.0125L61.9205 32.5727L62.3016 32.1916L62.6534 31.7518L63.1225 31.5466L63.6502 31.3707L63.7968 30.6377L64.4711 30.6964L64.7936 30.2566L65.38 30.1686L65.7612 29.7582L65.9957 29.2011L66.5528 29.0838L66.8166 28.5268H67.4616L67.6375 27.8525L68.3998 28.0284L68.693 27.53L69.0155 27.0609L69.5432 26.9143L70.0123 26.6504L70.2469 26.0641L70.8626 26.0054H71.4782L71.7421 25.4484L72.0939 25.0086L72.5923 24.8327L73.0028 24.4809L73.3839 24.0997H73.9996L74.498 23.8945L74.7912 23.3668L75.1724 22.9563L75.6415 22.7218H76.2571L76.6969 22.4579L77.166 22.194L77.4592 21.637L78.0749 21.6956L78.6319 21.6077L78.7785 20.7867L79.4822 20.9333L79.7167 20.2883L80.2151 20.1124L80.6549 19.8192L81.0947 19.4967L81.7104 19.5554L82.1501 19.2622L82.5899 18.9397L82.9711 18.5585L83.6747 18.7051L83.9386 18.0895L84.4663 18.0015L84.994 17.8549L85.5511 17.7669L86.0202 17.5617L86.2547 16.8288L86.7238 16.6235L87.2515 16.4769L87.8672 16.5063L88.1311 15.8906L88.6295 15.6853L89.3038 15.8906L89.5677 15.1869L90.0954 15.0697H90.6525L91.1216 14.7765L91.6493 14.6885L91.9718 14.1315L92.6168 14.2781L92.9393 13.6624L93.467 13.6037L93.8775 13.164L94.5225 13.3399L94.8743 12.8415L95.5193 13.0174L95.8125 12.343L96.5162 12.6655L96.9559 12.3724L97.3957 12.0792L97.8648 11.8153L98.4805 11.874L98.803 11.2876L99.448 11.4928L99.9171 11.2289L100.357 10.9358L100.767 10.5253L101.412 10.7012L101.852 10.4373L102.233 9.96825L102.761 9.82166L103.23 9.58712L103.699 9.29393L104.315 9.46984L104.696 8.97143L105.341 9.23529L105.663 8.53165L106.25 8.64893L106.69 8.29711L107.217 8.20915L107.833 8.35574L108.302 8.17983L108.683 7.56415L109.27 7.68142L109.768 7.53483L110.296 7.41755L110.794 7.24164L111.322 7.18301L111.85 7.12437L112.289 6.74323L112.876 6.88982L113.345 6.65528L113.843 6.45005L114.342 6.24482L114.752 5.71709L115.28 5.65845L115.749 5.45322L116.306 5.4239L116.922 5.65845L117.449 5.59981L117.919 5.4239L118.388 5.13072L118.827 4.72026L119.443 4.92549L119.971 4.89617L120.44 4.60299L120.88 4.16321L121.437 4.19253L121.994 4.25117H122.522L123.049 4.19253L123.518 3.84071L124.046 3.75275L124.515 3.54753L125.043 3.43025L125.541 3.1957L126.069 3.22502L126.626 3.25434L127.095 2.8732L127.594 2.78525L128.18 2.99048L128.708 2.96116H129.235L129.763 2.8732L130.203 2.37479L130.789 2.66797L131.258 2.2282L131.845 2.52138L132.343 2.28683L132.871 2.31615L133.399 2.25752L133.897 1.93501L134.425 1.99365L134.894 1.52456L135.48 1.96433L135.979 1.7591L136.477 1.55387L137.034 1.58319L137.533 1.40728L138.031 1.14342L138.617 1.64183L139.116 1.29001L139.644 1.34865L140.142 0.996825L140.699 1.14342L141.197 0.938189L141.754 1.17274L142.253 0.791597L142.781 0.703642L143.308 0.850233L143.836 0.674323L144.334 0.498413L144.892 0.703642L145.39 0.498413H145.918L146.475 0.762278L147.002 0.850233H147.53L148.058 0.73296H148.586L149.113 0.498413L149.612 0.439776L150.169 0.615686L150.667 0.117274L151.195 0.205229L151.723 0.351821L152.25 0.205229L152.778 0.322502L153.306 0.117274L153.834 0H154.361L154.889 0.146592L155.417 0.117274L155.945 0.439776L156.472 0.0293184L157 0.0879552L157.528 0.293184L158.055 0.527731L158.583 0.263866L159.111 0.0293184L159.639 0.293184L160.166 0.17591L160.694 0.0879552L161.222 0.117274L161.75 0.615686L162.277 0.586368L162.805 0.674323L163.333 0.351821L163.861 0.55705H164.388L164.945 0.17591L165.444 0.615686L165.971 0.293184L166.499 0.73296L167.027 0.439776L167.555 0.674323H168.082L168.581 0.967507L169.109 0.938189L169.666 0.645005L170.193 0.498413L170.692 0.90887L171.219 1.17274L171.776 0.73296H172.304L172.803 1.1141L173.33 1.02614L173.829 1.31933L174.386 1.17274L174.884 1.52456L175.441 1.29001L175.969 1.14342L176.467 1.61251L176.966 1.7591L177.523 1.55387L177.992 1.93501L178.608 1.49524L179.106 1.64183L179.663 1.58319L180.132 1.9057H180.66L181.188 2.05229L181.657 2.40411L182.214 2.34547L182.8 2.08161L183.24 2.49206L183.738 2.75593L184.354 2.34547L184.852 2.60934H185.38L185.849 2.90252L186.318 3.25434L186.846 3.37162L187.403 3.22502L187.99 3.01979L188.488 3.22502L189.016 3.28366L189.426 3.89935L190.042 3.54753H190.57L191.009 4.01662H191.537L192.006 4.36844L192.505 4.54435L193.15 4.16321L193.648 4.28049L194.117 4.60299L194.616 4.80822L195.173 4.74958L195.7 4.86685L196.14 5.18936L196.697 5.16004L197.225 5.27731L197.665 5.68777L198.134 5.92232L198.691 5.86368L199.277 5.80504L199.746 6.03959L200.274 6.12754L200.684 6.56732L201.3 6.42073L201.828 6.45005L202.209 7.06573L202.707 7.18301L203.294 7.12437L203.763 7.3296L204.261 7.50551L204.848 7.41755L205.229 8.00392L205.727 8.1212L206.196 8.41438L206.724 8.50233L207.252 8.59029L207.838 8.47302L208.19 9.0887L208.806 8.91279L209.275 9.17666L209.744 9.4112L210.184 9.79235L210.711 9.8803L211.18 10.0855L211.825 9.90962L212.207 10.3201L212.676 10.5839L213.145 10.8185L213.643 10.9944L214.317 10.7599L214.787 10.9651L215.08 11.6687L215.578 11.8446L216.223 11.6394L216.751 11.7567L217.103 12.3137L217.689 12.2844L218.012 12.8708L218.715 12.5776L219.155 12.8415L219.565 13.2812L220.035 13.4865L220.474 13.7796L221.031 13.8383L221.413 14.3074H221.97L222.439 14.5712L222.908 14.8058L223.465 14.8644L223.993 14.9817L224.344 15.4801L224.725 15.9199L225.341 15.8026L225.81 16.0958L226.338 16.2131L226.631 16.7994L227.335 16.5942L227.687 17.0633L228.068 17.4738L228.654 17.4444L229.153 17.6497L229.592 17.9722L229.973 18.3826L230.618 18.236L230.882 18.881L231.322 19.1742L231.791 19.4381L232.466 19.2915L232.729 19.9365L233.199 20.1417L233.638 20.4642L234.195 20.5229L234.664 20.7574L235.104 21.0506L235.661 21.1679L236.101 21.4317L236.541 21.7542L236.951 22.1061L237.332 22.4872L237.714 22.8683L238.329 22.839L238.622 23.3961L239.062 23.6893L239.737 23.572L240.206 23.8359L240.645 24.129L241.056 24.4809L241.32 25.0672L241.965 25.0379L242.258 25.5363L242.61 25.9468L243.049 26.2693L243.665 26.2986L244.193 26.4159L244.486 26.9436L244.955 27.1782L245.336 27.5593L245.659 27.9991L246.099 28.3216L246.656 28.4388L247.213 28.5854L247.535 28.9959L247.887 29.4357L248.297 29.7582L248.972 29.7289L249.177 30.3445L249.5 30.7843L250.262 30.667L250.408 31.3707L250.76 31.7225L251.171 32.0743L251.962 31.8984L252.226 32.3968L252.549 32.8659L252.93 33.2471L253.37 33.5109L253.897 33.7455L254.278 34.068L254.542 34.5957H255.246L255.568 35.0062L255.979 35.3287L256.419 35.6219L256.8 36.003L257.122 36.4428L257.709 36.56L258.031 36.9998L258.383 37.4103L258.618 37.9087L259.116 38.1726L259.614 38.4071L260.142 38.6123L260.435 39.0521L260.904 39.316L261.344 39.6092L261.432 40.3128L262.077 40.3714L262.253 40.9871L262.722 41.251L262.927 41.808L263.572 41.8667L263.807 42.4237L264.364 42.5703L264.774 42.9221L265.244 43.186L265.537 43.6551L265.976 43.9483L265.947 44.7106L266.68 44.7399L266.768 45.4142L267.179 45.7367L267.442 46.2058L267.882 46.5283L268.498 46.6456L268.703 47.2026L269.143 47.4958L269.7 47.701L269.671 48.4633L270.169 48.6979L270.433 49.1669L271.137 49.2549L271.459 49.6654L271.606 50.2224L272.045 50.5449L272.339 50.9847L272.896 51.2192L272.925 51.8936L273.365 52.2161L273.805 52.5386L274.42 52.6852L274.508 53.3008L274.948 53.6233L275.241 54.0631L275.329 54.6788L275.74 55.0013L276.15 55.3531L276.736 55.5584L277.059 55.9688L277.235 56.5259L277.733 56.7897L277.762 57.4641L278.495 57.5227L278.642 58.1091L278.906 58.5782L279.316 58.9007L279.844 59.1645L280.167 59.575L280.049 60.3373L280.724 60.4838L280.782 61.0995L281.046 61.5686L281.427 61.9205L281.691 62.3895L281.984 62.8293L282.6 63.0345L282.805 63.533L282.923 64.1193L283.216 64.5298L283.89 64.7057L284.213 65.1162L284.183 65.7905L284.74 66.0543L285.121 66.4062L285.092 67.0805L285.766 67.2564V67.9014L286.001 68.3705L286.587 68.605L286.851 69.0741L287.086 69.5432L287.32 70.0123L287.584 70.4814L288.083 70.7746L288.229 71.3023L288.757 71.5955L288.728 72.2405L289.226 72.563L289.49 73.0321L289.724 73.4719L290.164 73.8237L290.399 74.3221L290.663 74.7619L290.604 75.4362L291.102 75.7587L291.278 76.2571L291.806 76.5503L292.07 77.0194L292.041 77.6351L292.216 78.1335L292.949 78.3388V78.9544L293.477 79.2476L293.741 79.6874L293.653 80.3617L293.858 80.8308L294.503 81.0947L294.738 81.5638V82.1795L295.119 82.5606L295.471 82.9711L295.441 83.5867L295.999 83.8799L295.969 84.4956L296.38 84.8767L296.262 85.5218L296.819 85.8443L296.907 86.372L297.289 86.7824L297.64 87.1929L297.934 87.6327L298.08 88.1604L298.227 88.6588L298.491 89.1279V89.7143L298.901 90.0954V90.6818L299.165 91.1509L299.575 91.532L299.869 91.9718L300.015 92.4995L299.898 93.1152L300.22 93.555L300.279 94.112L300.865 94.4346L301.041 94.933L301.129 95.4607L301.422 95.9005L301.364 96.4868L301.598 96.9852L302.067 97.3664L302.155 97.8648L302.419 98.3339L302.771 98.7737L302.595 99.4187L303.269 99.7119L303.094 100.357L303.475 100.767L303.827 101.207L303.68 101.823L303.739 102.351L304.354 102.702L304.589 103.171L304.266 103.846L304.56 104.286L304.794 104.755L304.735 105.341L305.029 105.81L305.234 106.279L305.468 106.778L305.967 107.159L305.791 107.774L305.879 108.302L306.084 108.771L306.612 109.182L306.436 109.768L306.495 110.296L306.553 110.853L307.169 111.205L307.345 111.703L307.257 112.289L307.579 112.729L307.843 113.228L307.433 113.873L308.048 114.254L308.254 114.752L307.872 115.397L308.078 115.896L308.371 116.335L308.811 116.775L308.43 117.42L308.899 117.86L308.693 118.446L308.869 118.945L309.338 119.355L309.485 119.883L309.69 120.352L309.749 120.909L309.632 121.466L309.954 121.935L309.807 122.492L310.013 122.991L309.895 123.577L310.042 124.075L310.13 124.603L310.423 125.072L310.628 125.571L310.922 126.04L311.039 126.568L310.628 127.183L311.01 127.623L311.068 128.151L310.98 128.708L311.068 129.235L311.215 129.734L311.42 130.232L311.713 130.731L311.625 131.288V131.816L312.065 132.285L311.889 132.842V133.369L311.918 133.897L312.417 134.366L312.094 134.923L312.358 135.422L312.036 136.008L312.534 136.477L312.475 137.005L312.593 137.533L312.505 138.06L312.563 138.588L312.71 139.116L313.062 139.614L312.681 140.171L312.769 140.699L312.798 141.227L313.179 141.725L313.326 142.224L312.857 142.81L313.062 143.308L313.355 143.807L313.15 144.364L313.062 144.892L313.267 145.419L313.502 145.918L313.414 146.445L313.736 146.973L313.619 147.501L313.502 148.029L313.707 148.556L313.238 149.113L313.384 149.612L313.56 150.139L313.384 150.667L313.765 151.195L313.677 151.723L313.765 152.25L313.824 152.778L313.853 153.306L313.707 153.834L313.883 154.361L313.502 154.889L313.677 155.417L313.824 155.945L313.883 156.472L313.677 157Z" fill="#FFCC33"/>
</svg>
