<?xml version="1.0" encoding="UTF-8" standalone="no"?><!DOCTYPE svg PUBLIC "-//W3C//DTD SVG 1.1//EN" "http://www.w3.org/Graphics/SVG/1.1/DTD/svg11.dtd"><svg width="100%" height="100%" viewBox="0 0 1152 592" version="1.1" xmlns="http://www.w3.org/2000/svg" xmlns:xlink="http://www.w3.org/1999/xlink" xml:space="preserve" xmlns:serif="http://www.serif.com/" style="fill-rule:evenodd;clip-rule:evenodd;stroke-linejoin:round;stroke-miterlimit:1.41421;"><path d="M0,0l1152,154.32l0,269.04l-1152,168.24l0,-591.6Z" style="fill:#fef5f5;"/><path d="M751.554,482.092c-5.396,-13.142 -7.33,-27.49 -4.946,-42.003c7.654,-46.606 56.952,-77.369 110.02,-68.654c46.492,7.635 80.552,43.054 83.132,83.053l-188.206,27.604Z" style="fill:#6db6fb;"/><path d="M297.395,548.702c-2.649,-6.572 -4.09,-13.644 -4.09,-21.01c0,-34.787 32.158,-63.031 71.769,-63.031c39.611,0 71.769,28.244 71.769,63.031c0,0.186 -0.001,0.372 -0.002,0.558l-139.446,20.452Z" style="fill:#fccd2c;"/></svg>