<svg width="356" height="356" viewBox="0 0 356 356" fill="none" xmlns="http://www.w3.org/2000/svg">
<path d="M355.634 178L355.867 178.598L356 179.197L355.934 179.795L355.568 180.393L355.967 180.992L355.767 181.59L355.468 182.188L355.834 182.787L355.668 183.385L355.701 183.983L355.568 184.582V185.18L355.202 185.745L355.335 186.376L355.236 186.942L355.468 187.573L355.269 188.138L355.103 188.737L355.302 189.368L355.202 189.933L355.601 190.565L354.97 191.13L355.136 191.728L355.003 192.326L354.803 192.891L355.036 193.523L355.202 194.155L354.803 194.72L355.003 195.318L355.103 195.95L354.87 196.515L354.637 197.08L354.471 197.678L354.438 198.276L354.338 198.875L354.504 199.473L354.105 200.038L354.471 200.703L354.305 201.268L354.072 201.833L354.139 202.465L354.272 203.063L353.607 203.595L353.64 204.193L353.374 204.758L353.407 205.357L353.706 206.021L353.573 206.62V207.218L353.507 207.816L353.208 208.348L353.241 208.98L353.108 209.578L353.141 210.176L352.61 210.675L352.31 211.24L352.709 211.938L352.576 212.503L352.111 213.035L351.945 213.6L351.978 214.198L352.144 214.863L351.446 215.328L351.546 215.96L351.579 216.558L351.646 217.19L351.479 217.788L351.413 218.387L350.781 218.852L350.582 219.417L350.682 220.049L350.648 220.647L350.582 221.245L350.15 221.777L349.884 222.309L349.817 222.907L349.751 223.506L349.585 224.104L349.751 224.769L349.651 225.367L349.219 225.866V226.464L349.053 227.062L348.72 227.561L348.355 228.093L348.189 228.658L347.889 229.19L348.122 229.888V230.519L347.391 230.918L347.358 231.516V232.148L347.391 232.813L347.025 233.311L346.726 233.843L346.56 234.408L346.327 234.973L345.895 235.472L346.128 236.17L345.696 236.669L345.895 237.333L345.396 237.799L345.463 238.464L344.865 238.896L344.931 239.56L344.565 240.059L344.266 240.591L344.366 241.256L343.801 241.688L343.701 242.286L343.302 242.785L343.036 243.317L343.236 244.048L342.538 244.38L342.604 245.078L342.272 245.577L341.84 246.042L342.139 246.807L341.541 247.206L341.275 247.737L341.142 248.336L340.976 248.901L340.577 249.399L340.211 249.898L340.344 250.596L339.945 251.095L339.879 251.693L339.546 252.192V252.856L338.749 253.156L338.848 253.887L338.649 254.452L338.483 255.017L338.15 255.516L337.552 255.881L337.685 256.613L337.485 257.178L337.219 257.743L336.954 258.275L336.156 258.54L336.189 259.238L335.657 259.637L335.69 260.302L335.391 260.834L334.826 261.2V261.898L334.56 262.43L333.929 262.762L333.995 263.46L333.696 263.992L333.397 264.524L332.931 264.923L332.765 265.521L332.566 266.086L331.868 266.385L331.768 267.017V267.715L331.269 268.114L330.937 268.612L330.571 269.078L330.139 269.543L330.106 270.208L329.94 270.806L329.541 271.271L329.042 271.67L328.976 272.335L328.477 272.701L327.813 273L327.945 273.798L327.646 274.329L327.281 274.795L326.682 275.127L326.217 275.526V276.257L325.619 276.557L325.353 277.088L325.32 277.82L324.688 278.086L324.721 278.85L324.156 279.182L323.757 279.615L323.691 280.313L322.827 280.446L322.494 280.944L322.261 281.509L321.929 282.008L321.73 282.606L321.131 282.905L321.198 283.67L320.766 284.102L320.034 284.301L320.068 285.066L319.336 285.299L319.137 285.864L318.771 286.362L318.339 286.761L318.306 287.492L317.575 287.692L317.309 288.224L316.777 288.556L316.444 289.055L316.411 289.819L315.613 289.952L315.447 290.551L314.915 290.916V291.681L314.384 292.013L313.785 292.312L313.752 293.077L313.054 293.243L312.722 293.742L312.323 294.174L311.957 294.639L311.791 295.304L311.093 295.503L310.993 296.201L310.328 296.401L309.929 296.866L309.697 297.464L309.364 297.963L308.733 298.196L308.4 298.694L307.802 298.96L307.503 299.492L307.137 299.957L306.672 300.356L306.306 300.822L306.04 301.387L305.276 301.52L304.877 301.952V302.783L304.345 303.082L303.647 303.248L303.381 303.846L303.148 304.445L302.517 304.644L301.985 304.943L301.52 305.342L301.486 306.173L301.088 306.605L300.589 306.971L300.024 307.237L299.592 307.636L299.359 308.267L298.628 308.334L298.428 309.032H297.631L297.265 309.531L297.132 310.262L296.467 310.395L296.268 311.093L295.669 311.326L295.37 311.891L294.805 312.156L294.307 312.456L293.775 312.788L293.21 313.021L292.778 313.453L292.545 314.118L291.98 314.35L291.581 314.816L291.215 315.314L290.551 315.447L290.152 315.913L289.853 316.511L289.254 316.71L288.589 316.843L288.456 317.641L287.592 317.475L287.459 318.306L286.661 318.239L286.396 318.871L285.93 319.237L285.498 319.669L284.999 320.001L284.601 320.5L284.168 320.899L283.57 321.065L283.005 321.298L282.673 321.863L282.108 322.095L281.41 322.195L281.177 322.893H280.446L280.013 323.325L279.648 323.824L279.182 324.223L278.784 324.655L277.953 324.522L277.687 325.22L277.321 325.718L276.557 325.652L276.058 326.018L275.659 326.416L275.16 326.749L274.629 327.081L274.13 327.38L273.565 327.613L273.1 328.012L272.468 328.145L272.235 328.876L271.703 329.175L271.005 329.142L270.607 329.607L269.975 329.74L269.776 330.605L269.044 330.505L268.546 330.837L268.114 331.269L267.681 331.735L266.884 331.602L266.651 332.333L265.853 332.2L265.454 332.666L264.956 333.031L264.391 333.197L263.892 333.563L263.261 333.63L262.762 333.962L262.363 334.461L261.831 334.76L261.299 335.026L260.867 335.491L260.103 335.292L259.604 335.624L259.172 336.156L258.574 336.255L258.241 336.954L257.477 336.787L257.078 337.253L256.513 337.519H255.848L255.516 338.183H254.851L254.252 338.283L253.754 338.616L253.355 339.214L252.69 339.181L252.258 339.712L251.726 339.978L251.095 340.012L250.563 340.278H249.898L249.499 340.809L248.934 341.042L248.236 340.909L247.837 341.541L247.239 341.674L246.707 341.906L246.208 342.239L245.577 342.272L244.945 342.338L244.58 343.07L243.981 343.203L243.516 343.568L242.785 343.369L242.253 343.668L241.621 343.701L241.156 344.1L240.591 344.3L240.126 344.798L239.56 344.964L239.029 345.263L238.464 345.496H237.832L237.3 345.795L236.602 345.529L236.07 345.895L235.505 346.095L234.94 346.294L234.475 346.726L233.777 346.593L233.278 346.959L232.746 347.191L232.115 347.258L231.55 347.424L230.985 347.557L230.386 347.723L229.921 348.189H229.289L228.624 348.122L228.159 348.654L227.494 348.455L226.962 348.754L226.364 348.787L225.866 349.252L225.234 349.186L224.769 349.817L224.204 349.95L223.539 349.817L222.94 349.851L222.375 350.083L221.81 350.316L221.212 350.349L220.713 350.781L220.115 350.914L219.483 350.815L218.819 350.682L218.287 350.948L217.722 351.114L217.19 351.546L216.525 351.38L215.993 351.646L215.461 352.011L214.83 351.911L214.232 351.945L213.567 351.812L213.002 351.978L212.536 352.709L211.872 352.377H211.273L210.675 352.543L210.077 352.477L209.578 353.141L208.98 353.208L208.381 353.241L207.717 352.909L207.151 353.141L206.586 353.308L205.955 353.274L205.39 353.441L204.858 353.906L204.226 353.806L203.595 353.573L203.03 353.806L202.498 354.338L201.866 354.072L201.235 354.006L200.636 354.072L200.071 354.238L199.506 354.504L198.875 354.238L198.276 354.272L197.678 354.305L197.146 354.936L196.515 354.77L195.883 354.471L195.318 354.737L194.753 355.202L194.155 355.335L193.523 354.97L192.958 355.302L192.36 355.335H191.761L191.163 355.202L190.598 355.601L189.966 355.202L189.368 355.535L188.77 355.302L188.171 355.335L187.573 355.269L186.975 355.668L186.41 355.767L185.778 355.568H185.18L184.582 355.801L184.016 355.934L183.385 355.468H182.787L182.188 355.568L181.59 355.734L180.992 355.335L180.393 355.601L179.795 355.535L179.197 356L178.598 355.435H178L177.402 355.501L176.803 355.535L176.205 355.9L175.607 355.435L175.008 355.767L174.41 355.934L173.812 356L173.213 355.867L172.615 355.668L172.017 355.701L171.452 355.236L170.853 355.269L170.222 355.734L169.657 355.368L169.058 355.402L168.46 355.501H167.829L167.23 355.701L166.665 355.269L166.034 355.601L165.469 355.169L164.837 355.535L164.272 354.97L163.674 355.069L163.075 355.036L162.51 354.803L161.879 355.069L161.28 355.136L160.682 354.837L160.05 355.169L159.485 354.936L158.92 354.471L158.322 354.704L157.724 354.471L157.125 354.537L156.527 354.604L155.962 354.105L155.33 354.438L154.732 354.471L154.2 353.906L153.569 353.939L153.004 353.873L152.438 353.54H151.84L151.242 353.474L150.644 353.407L150.045 353.374L149.447 353.341L148.849 353.274L148.25 353.241L147.718 352.809L147.087 352.875L146.522 352.643L145.857 353.075L145.259 353.008L144.727 352.61L144.128 352.543L143.597 352.177L142.899 352.477L142.433 351.845L141.868 351.679L141.203 351.812L140.572 351.978L140.04 351.579L139.442 351.513L138.91 351.18L138.278 351.247L137.613 351.413L137.181 350.615L136.483 351.08L136.018 350.482L135.42 350.382L134.755 350.582L134.223 350.216L133.658 350.017L132.993 350.216L132.561 349.485L131.83 349.917L131.265 349.718L130.766 349.286L130.068 349.485L129.636 348.853H129.004L128.472 348.554L127.808 348.687L127.276 348.421L126.711 348.222L126.079 348.189L125.514 347.989L124.949 347.889L124.417 347.491L123.885 347.291L123.254 347.191L122.755 346.859L122.09 346.959L121.525 346.693L121.027 346.327L120.462 346.161L119.863 346.061L119.232 346.028L118.866 345.263L118.268 345.197L117.703 344.964L117.204 344.665L116.606 344.532L116.007 344.399L115.442 344.266L114.844 344.1L114.279 343.967L113.814 343.469L113.215 343.302L112.517 343.502L112.019 343.136L111.42 343.036L110.889 342.771L110.39 342.405L109.925 341.94L109.326 341.807L108.695 341.773L108.096 341.674L107.531 341.441L106.966 341.208L106.501 340.843L106.069 340.344L105.537 340.078L104.839 340.145L104.241 340.012L103.775 339.579L103.144 339.546L102.711 339.014L102.313 338.483L101.615 338.549L101.116 338.25L100.684 337.718L99.9193 337.917L99.3542 337.718L98.8557 337.419L98.5565 336.688L97.8585 336.721L97.4263 336.222L96.828 336.123L96.3294 335.757L95.7311 335.624L95.299 335.192L94.5677 335.292L94.2021 334.66L93.7699 334.195L93.0387 334.328L92.7727 333.596L92.0747 333.563L91.5761 333.264L90.8781 333.297L90.4459 332.832L89.8476 332.699L89.5152 332.067L88.8504 332.001L88.4848 331.402L88.0527 331.004L87.2549 331.17L87.0887 330.306L86.4239 330.206L85.8256 330.04L85.4932 329.475L84.8949 329.308L84.496 328.81L83.9642 328.511L83.2329 328.544L82.6678 328.311L82.4351 327.58L82.003 327.148L81.172 327.347L80.8064 326.815L80.4407 326.25L80.0086 325.851H79.2773L78.9449 325.286L78.4131 325.02L77.981 324.588L77.15 324.754L76.7843 324.223L76.5184 323.591L75.7539 323.624L75.5877 322.793L74.7234 322.96L74.6237 322.128L73.8924 322.062L73.6265 321.464L72.995 321.298L72.3634 321.165L71.7983 320.865L71.5656 320.201L71.067 319.901L70.7346 319.336H69.9701L69.671 318.771L69.1059 318.505L68.9064 317.807L68.3414 317.575L67.8428 317.209L67.2445 317.01L66.8788 316.511L66.214 316.378L66.0811 315.58L65.2501 315.647L64.7182 315.348L64.2529 314.982L64.0202 314.317L63.6878 313.785H62.9233L62.8568 312.921L62.0258 312.988L61.9593 312.156H61.1615L60.9289 311.525L60.2308 311.425L59.7322 311.06L59.5328 310.395L58.9012 310.195L58.7683 309.431L58.1367 309.265L57.5384 308.999L57.2725 308.434L56.9068 307.935L56.6409 307.37L56.0758 307.104L55.4443 306.871L55.1783 306.273L54.7795 305.841L54.2144 305.575L53.8487 305.11L53.5496 304.545L52.7851 304.478L52.6521 303.78L52.3862 303.182L51.8876 302.816L51.3557 302.517L50.6577 302.384L50.558 301.653L50.1591 301.187L49.5275 300.955L49.4611 300.19L48.7298 300.057L48.3642 299.592L47.8988 299.226L47.4667 298.794L47.2672 298.162L46.8684 297.73L46.1371 297.564L46.0041 296.899L45.4058 296.633L45.3061 295.935L44.7078 295.636L44.5083 295.038L43.91 294.772L43.4446 294.373L43.3117 293.708L42.946 293.21L42.6801 292.645L41.8491 292.578L41.417 292.146L41.1178 291.614L40.9849 290.949L40.6192 290.484L40.1206 290.118L39.9212 289.52L39.5888 289.022L39.0902 288.656L38.5251 288.323L38.2924 287.758L37.9268 287.293L37.4947 286.861L37.1955 286.362L36.7302 285.963L36.4642 285.398L35.8659 285.099L35.7994 284.401L35.1014 284.202L35.0349 283.47L34.8022 282.905L34.5031 282.407L33.938 282.074L33.7386 281.476L33.4394 280.944L33.1735 280.412L32.8411 279.914L32.3092 279.581L32.1763 278.917L31.6112 278.584L31.0129 278.252L31.1126 277.487L30.3148 277.321L30.0157 276.789L29.6168 276.324L29.5171 275.692L29.085 275.227L28.8523 274.695L28.3869 274.263V273.565L28.1542 273L27.7554 272.535L27.423 272.069L27.2568 271.438L26.5255 271.205L26.0934 270.773L25.8275 270.241L25.5948 269.676L25.2291 269.177L24.8303 268.745L25.0297 267.914L24.5311 267.515L24.3317 266.917L23.8331 266.551L23.3012 266.152L23.1683 265.554L22.8026 265.055L22.8691 264.357L22.3373 263.959L21.8387 263.526L22.0713 262.729L21.3401 262.463L20.9744 261.964L20.7417 261.432V260.734L20.5755 260.136L20.0437 259.737L20.1767 259.006L19.7445 258.574L19.2459 258.142L18.8471 257.676L18.9468 256.945L18.3152 256.613L18.282 255.948L17.9496 255.449L17.4842 255.017V254.352L16.9524 253.92L17.0521 253.222L16.8527 252.657L16.4538 252.192L16.3541 251.56L15.656 251.228L15.7225 250.563L15.4898 249.998L15.1907 249.466L15.2904 248.801L14.7918 248.369L14.6921 247.737L14.0605 247.372L14.3929 246.574L13.5287 246.275L13.9275 245.477L13.0965 245.178V244.513L12.9303 243.948L12.465 243.483L12.3653 242.884L12.465 242.186L12.2655 241.655L11.7337 241.189L11.3348 240.724L11.634 239.959L11.5343 239.361L11.1686 238.862V238.231L10.9359 237.666L10.4373 237.234L10.0717 236.702L9.70607 236.203L10.0052 235.472L9.80579 234.907L9.47339 234.408L9.34043 233.81L8.74211 233.378L9.17423 232.613L9.04127 232.015L8.77535 231.483L8.01083 231.084V230.486L7.77815 229.921L7.91111 229.256L7.67843 228.691L7.57871 228.093L7.64519 227.461L7.21307 226.962L6.98039 226.397L6.78095 225.832L6.58151 225.267L6.48179 224.702L6.68123 224.004L6.14939 223.539L6.34883 222.874L6.04967 222.342L5.85023 221.777L5.28515 221.278L5.65079 220.58L5.41811 220.015L5.15219 219.483L5.28515 218.819L4.91951 218.32L5.08571 217.655L4.98599 217.057L4.22148 216.625L4.72008 215.894L4.55388 215.328L3.92232 214.863L3.78936 214.265L4.08852 213.6L3.6564 213.068L3.4902 212.503L3.62316 211.872L3.19104 211.34L3.42372 210.675L3.12456 210.143L3.324 209.478L3.19104 208.913L2.95836 208.348V207.717L2.72568 207.151L2.85864 206.553L2.6592 205.955L2.72568 205.357L2.02764 204.858L2.36004 204.193L1.96116 203.661L1.79496 203.063L2.09412 202.431L1.79496 201.866L2.12736 201.202L1.662 200.67L1.52904 200.071L1.42932 199.506L1.46256 198.908L1.56228 198.276L1.19664 197.711L1.06368 197.146L1.3296 196.515L1.1634 195.916L0.963959 195.351L1.19664 194.72L1.22988 194.121L1.09692 193.523L0.598319 192.958V192.36L0.897479 191.728L0.664799 191.163L0.46536 190.565L0.764519 189.966L0.531839 189.368L0.664799 188.77L0.631559 188.171L0.764519 187.573L0.598319 186.975L0.39888 186.376L0.531839 185.778L0.0997199 185.18L0.631559 184.582L0.664799 183.983L0.565079 183.385L0.19944 182.787L0.13296 182.188L0 181.59L0.531839 180.992L0.598319 180.393L0.19944 179.795L0.1662 179.197L0 178.598L0.0664799 178L0.43212 177.402L0.0997199 176.803L0.565079 176.205L0.498599 175.607L0.43212 175.008L0.29916 174.41L0.664799 173.812L0.19944 173.213L0.598319 172.615L0.698039 172.017L0.598319 171.419L0.1662 170.82L0.39888 170.222L0.43212 169.624V169.025L0.39888 168.427L0.664799 167.862L0.631559 167.23L0.664799 166.632L0.897479 166.067L0.43212 165.435L0.764519 164.87L0.797759 164.272L0.698039 163.64L1.13016 163.075L0.698039 162.444L1.3296 161.912L0.930719 161.28L0.897479 160.649L1.09692 160.084L1.39608 159.519L1.06368 158.887V158.289L1.42932 157.724L1.52904 157.125L1.59552 156.527L1.92792 155.962L1.89468 155.364L1.52904 154.699L2.09412 154.167L2.06088 153.569L1.8282 152.937L2.3268 152.405L1.9944 151.74L2.6592 151.242L2.72568 150.644L2.29356 149.979L2.42652 149.38L2.45976 148.782L2.55948 148.217L2.69244 147.619L2.72568 147.02L2.89188 146.422L3.39048 145.923L3.05808 145.259L3.6564 144.76L3.85584 144.195L3.324 143.464L3.4902 142.899L3.85584 142.367L4.18824 141.802L4.22148 141.203L4.18824 140.605L4.68684 140.073L4.65359 139.475L4.95275 138.943L4.65359 138.245L5.15219 137.746L5.31839 137.181L5.38487 136.583L5.31839 135.951L5.55107 135.386L5.48459 134.755L5.94995 134.256L6.18263 133.691L5.81699 132.993L6.38207 132.528L6.64799 131.963L6.48179 131.298L6.74771 130.766L6.98039 130.201L7.24631 129.636L7.27955 129.038L7.34603 128.439L7.71167 127.941L7.74491 127.309L7.77815 126.677L7.97759 126.146L7.87787 125.481L8.50943 125.049L8.47619 124.417L9.04127 123.952L8.94155 123.32L9.27395 122.788L9.44015 122.19L9.30719 121.525L9.67283 121.027L10.1049 120.528L9.83903 119.83L10.5038 119.431L10.4373 118.766L10.4041 118.102L10.7365 117.603L11.1021 117.104L11.0689 116.44L11.1354 115.841L11.7669 115.409L11.9996 114.877L12.332 114.379L12.0329 113.614L12.7309 113.249L12.9968 112.717L13.0301 112.085L13.2295 111.52L13.5287 110.988L13.9275 110.49L13.5951 109.725L14.3929 109.393L14.0273 108.595L14.4261 108.13L14.6921 107.598L15.2239 107.166L15.3569 106.567L15.5563 106.002L15.6893 105.404L16.1879 104.972V104.307L16.6532 103.875L16.6865 103.243L16.7529 102.612L17.451 102.279L17.318 101.548L17.5175 100.983L17.9163 100.484L18.0493 99.9193L18.4814 99.454L18.8471 98.9554L19.2459 98.49L19.113 97.7587L19.7778 97.4263L20.1102 96.9277V96.2629L20.2099 95.6314L20.8415 95.299V94.6009L21.5727 94.335L21.7057 93.7035L21.8054 93.1051L22.1711 92.6066L22.6364 92.1744L22.5035 91.4099L23.0021 91.011L23.0353 90.3462L23.5339 89.9473L23.7998 89.4155L24.1655 88.9169L24.5311 88.4515L24.797 87.9197L25.0297 87.3546L25.5615 86.989L25.4951 86.2577L25.761 85.6926L26.2596 85.2938L26.7249 84.8949L26.9576 84.3298L27.4562 83.9309L27.5559 83.2994L27.9216 82.834L28.2207 82.3022L28.5531 81.8036L28.6861 81.172L29.2844 80.8396L29.6833 80.3742L30.0489 79.9421L30.1154 79.2773L30.4146 78.7455L31.0794 78.4796V77.715L31.8106 77.5156L31.9436 76.884L32.0433 76.2192L32.5087 75.8204L33.1402 75.5212L33.5059 75.0558V74.3246L33.8383 73.826L34.4366 73.5268V72.7623L35.2344 72.6293L35.6332 72.164L35.9324 71.6321L36.1318 71.067L36.4975 70.5685L36.9296 70.1696L37.4614 69.8372V69.0726L38.1262 68.84L38.1927 68.1087L38.3922 67.5104L38.8908 67.1447L39.1899 66.6129L39.5556 66.1475L40.1206 65.8151L40.2536 65.1836L41.1843 65.1503L41.2508 64.4523L41.8824 64.1864L42.2812 63.721L42.6136 63.2557L42.7134 62.5244L43.079 62.0923L43.5111 61.6601L44.043 61.3277L44.608 61.0286L44.9072 60.4967L45.1066 59.8652L45.4723 59.3998L46.1038 59.1671L46.536 58.735L46.7021 58.0702L47.2007 57.7046L47.4999 57.206L47.7991 56.6741L48.2977 56.2753L48.7963 55.9429L49.3613 55.6437L49.6273 55.0786L50.2588 54.8792V54.0149L50.9901 53.9152L51.1231 53.1839L51.8876 53.1507L52.2865 52.6853L52.5191 52.087L52.8515 51.5552L53.6493 51.4887L53.9485 50.9569L54.2476 50.3918L54.58 49.8932L55.1451 49.594L55.5107 49.1287L55.9429 48.7298L56.3417 48.2644L57.0065 48.1315L57.4054 47.6329L57.8375 47.234L58.1699 46.7021L58.6021 46.3033L58.9012 45.7714L59.6325 45.6717L59.7987 44.9737L60.3305 44.6745L60.7294 44.2092L61.4607 44.1427L61.9593 43.8103L62.3582 43.3449L62.6906 42.8131L63.023 42.2812L63.4551 41.8824L63.9205 41.5167L64.3858 41.0846L65.0839 41.0181L65.6157 40.719L65.7819 39.9877L66.3137 39.7218L66.8456 39.3894L67.3442 39.057L67.8428 38.7578L68.1419 38.1262L68.5076 37.6276L68.9397 37.262L69.8372 37.4282L70.2028 36.9296L70.6349 36.4975L71.0338 35.9989L71.5656 35.7662L72.164 35.5668L72.3302 34.7358L73.0947 34.8022L73.4603 34.3036L74.1251 34.2039L74.5572 33.7386L74.8232 33.107L75.4547 32.974L75.7539 32.3425H76.4852L76.6846 31.578L77.5488 31.7774L77.8812 31.2123L78.2469 30.6805L78.8452 30.5143L79.377 30.2151L79.643 29.5503L80.341 29.4838H81.039L81.3382 28.8523L81.7371 28.3537L82.3022 28.1542L82.7675 27.7554L83.1996 27.3232H83.8977L84.4628 27.0906L84.7952 26.4923L85.2273 26.0269L85.7591 25.761H86.4571L86.9557 25.4618L87.4876 25.1627L87.82 24.5311L88.518 24.5976L89.1496 24.4979L89.3158 23.5671L90.1135 23.7333L90.3795 23.0021L90.9445 22.8026L91.4431 22.4702L91.9417 22.1046L92.6398 22.1711L93.1384 21.8387L93.637 21.473L94.0691 21.0409L94.8669 21.2071L95.166 20.5091L95.7643 20.4093L96.3627 20.2431L96.9942 20.1434L97.5261 19.9107L97.792 19.0797L98.3238 18.8471L98.9221 18.6809L99.6202 18.7141L99.9193 18.0161L100.484 17.7834L101.249 18.0161L101.548 17.2183L102.146 17.0853H102.778L103.31 16.7529L103.908 16.6532L104.274 16.0217L105.005 16.1879L105.371 15.4898L105.969 15.4233L106.434 14.9247L107.166 15.1242L107.565 14.5591L108.296 14.7585L108.628 13.994L109.426 14.3597L109.925 14.0273L110.423 13.6949L110.955 13.3957L111.653 13.4622L112.019 12.7974L112.75 13.0301L113.282 12.7309L113.78 12.3985L114.246 11.9331L114.977 12.1326L115.476 11.8334L115.908 11.3016L116.506 11.1354L117.038 10.8695L117.57 10.5371L118.268 10.7365L118.7 10.1714L119.431 10.4706L119.797 9.67283L120.462 9.80579L120.96 9.40691L121.559 9.30719L122.257 9.47339L122.788 9.27395L123.221 8.57591L123.885 8.70887L124.45 8.54267L125.049 8.40971L125.614 8.21027L126.212 8.14379L126.81 8.07731L127.309 7.64519L127.974 7.81139L128.506 7.54547L129.071 7.31279L129.636 7.08011L130.101 6.48179L130.7 6.41531L131.231 6.18263L131.863 6.14939L132.561 6.41531L133.159 6.34883L133.691 6.14939L134.223 5.81699L134.722 5.35163L135.42 5.58431L136.018 5.55107L136.55 5.21867L137.048 4.72008L137.68 4.75332L138.312 4.81979H138.91L139.508 4.75332L140.04 4.35444L140.638 4.25472L141.17 4.02204L141.768 3.88908L142.334 3.62316L142.932 3.6564L143.563 3.68964L144.095 3.25752L144.66 3.1578L145.325 3.39048L145.923 3.35724H146.522L147.12 3.25752L147.619 2.69244L148.283 3.02484L148.815 2.52624L149.48 2.85864L150.045 2.59272L150.644 2.62596L151.242 2.55948L151.807 2.19384L152.405 2.26032L152.937 1.72848L153.602 2.22708L154.167 1.9944L154.732 1.76172L155.364 1.79496L155.929 1.59552L156.494 1.29636L157.159 1.86144L157.724 1.46256L158.322 1.52904L158.887 1.13016L159.519 1.29636L160.084 1.06368L160.715 1.3296L161.28 0.897479L161.879 0.797759L162.477 0.963959L163.075 0.764519L163.64 0.565079L164.272 0.797759L164.837 0.565079H165.435L166.067 0.864239L166.665 0.963959H167.264L167.862 0.830999H168.46L169.058 0.565079L169.624 0.498599L170.255 0.698039L170.82 0.13296L171.419 0.23268L172.017 0.39888L172.615 0.23268L173.213 0.36564L173.812 0.13296L174.41 0H175.008L175.607 0.1662L176.205 0.13296L176.803 0.498599L177.402 0.03324L178 0.0997199L178.598 0.3324L179.197 0.598319L179.795 0.29916L180.393 0.03324L180.992 0.3324L181.59 0.19944L182.188 0.0997199L182.787 0.13296L183.385 0.698039L183.983 0.664799L184.582 0.764519L185.18 0.39888L185.778 0.631559H186.376L187.008 0.19944L187.573 0.698039L188.171 0.3324L188.77 0.830999L189.368 0.498599L189.966 0.764519H190.565L191.13 1.09692L191.728 1.06368L192.36 0.731279L192.958 0.565079L193.523 1.03044L194.121 1.3296L194.753 0.830999H195.351L195.916 1.26312L196.515 1.1634L197.08 1.4958L197.711 1.3296L198.276 1.72848L198.908 1.46256L199.506 1.29636L200.071 1.8282L200.636 1.9944L201.268 1.76172L201.8 2.19384L202.498 1.69524L203.063 1.86144L203.694 1.79496L204.226 2.1606H204.825L205.423 2.3268L205.955 2.72568L206.586 2.6592L207.251 2.36004L207.75 2.8254L208.315 3.12456L209.013 2.6592L209.578 2.95836H210.176L210.708 3.29076L211.24 3.68964L211.838 3.8226L212.47 3.6564L213.135 3.42372L213.7 3.6564L214.298 3.72288L214.763 4.42092L215.461 4.02204H216.06L216.558 4.55388H217.157L217.689 4.95275L218.254 5.15219L218.985 4.72008L219.55 4.85303L220.082 5.21867L220.647 5.45135L221.278 5.38487L221.877 5.51783L222.375 5.88347L223.007 5.85023L223.605 5.98319L224.104 6.44855L224.636 6.71447L225.267 6.64799L225.932 6.58151L226.464 6.84743L227.062 6.94715L227.528 7.44575L228.226 7.27955L228.824 7.31279L229.256 8.01083L229.821 8.14379L230.486 8.07731L231.018 8.30999L231.583 8.50943L232.248 8.40971L232.68 9.07451L233.245 9.20747L233.777 9.53987L234.375 9.63959L234.973 9.73931L235.638 9.60635L236.037 10.3044L236.735 10.1049L237.267 10.4041L237.799 10.67L238.297 11.1021L238.896 11.2019L239.427 11.4345L240.159 11.2351L240.591 11.7005L241.123 11.9996L241.655 12.2655L242.22 12.465L242.984 12.1991L243.516 12.4317L243.848 13.2295L244.413 13.4289L245.145 13.1963L245.743 13.3292L246.142 13.9608L246.807 13.9275L247.172 14.5923L247.97 14.2599L248.469 14.5591L248.934 15.0577L249.466 15.2904L249.965 15.6228L250.596 15.6893L251.028 16.2211H251.66L252.192 16.5203L252.723 16.7862L253.355 16.8527L253.953 16.9856L254.352 17.5507L254.784 18.0493L255.482 17.9163L256.014 18.2487L256.613 18.3817L256.945 19.0465L257.743 18.8138L258.142 19.3457L258.574 19.811L259.238 19.7778L259.804 20.0105L260.302 20.3761L260.734 20.8415L261.466 20.6753L261.765 21.4065L262.263 21.7389L262.795 22.0381L263.56 21.8719L263.859 22.6032L264.391 22.8359L264.889 23.2015L265.521 23.268L266.053 23.5339L266.551 23.8663L267.183 23.9993L267.681 24.2984L268.18 24.6641L268.645 25.0629L269.078 25.4951L269.51 25.9272L270.208 25.8939L270.54 26.5255L271.039 26.8579L271.803 26.7249L272.335 27.0241L272.834 27.3565L273.299 27.7554L273.598 28.4202L274.329 28.3869L274.662 28.952L275.061 29.4174L275.559 29.783L276.257 29.8162L276.856 29.9492L277.188 30.5475L277.72 30.8134L278.152 31.2456L278.518 31.7442L279.016 32.1098L279.648 32.2428L280.279 32.409L280.645 32.8743L281.044 33.3729L281.509 33.7386L282.274 33.7053L282.506 34.4034L282.872 34.902L283.736 34.769L283.903 35.5668L284.301 35.9656L284.767 36.3645L285.664 36.1651L285.963 36.7302L286.329 37.262L286.761 37.6941L287.26 37.9933L287.858 38.2592L288.29 38.6248L288.589 39.2232H289.387L289.753 39.6885L290.218 40.0542L290.717 40.3866L291.149 40.8187L291.514 41.3173L292.179 41.4502L292.545 41.9488L292.944 42.4142L293.21 42.9793L293.775 43.2784L294.34 43.5443L294.938 43.777L295.271 44.2756L295.802 44.5748L296.301 44.9072L296.401 45.705L297.132 45.7714L297.331 46.4695L297.863 46.7686L298.096 47.4002L298.827 47.4667L299.093 48.0982L299.725 48.2644L300.19 48.6633L300.722 48.9625L301.054 49.4943L301.553 49.8267L301.52 50.6909L302.351 50.7242L302.45 51.4887L302.916 51.8543L303.215 52.3862L303.714 52.7518L304.412 52.8848L304.644 53.5163L305.143 53.8487L305.774 54.0814L305.741 54.9457L306.306 55.2116L306.605 55.7434L307.403 55.8431L307.769 56.3085L307.935 56.9401L308.434 57.3057L308.766 57.8043L309.398 58.0702L309.431 58.8347L309.929 59.2004L310.428 59.566L311.126 59.7322L311.226 60.4303L311.724 60.7959L312.057 61.2945L312.156 61.9925L312.622 62.3582L313.087 62.7571L313.752 62.9897L314.118 63.4551L314.317 64.0866L314.882 64.3858L314.915 65.1503L315.746 65.2168L315.913 65.8816L316.212 66.4135L316.677 66.7791L317.275 67.0782L317.641 67.5436L317.508 68.4079L318.273 68.574L318.339 69.2721L318.638 69.8039L319.07 70.2028L319.37 70.7346L319.702 71.2332L320.4 71.4659L320.633 72.031L320.766 72.6958L321.098 73.1612L321.863 73.3606L322.228 73.826L322.195 74.5905L322.827 74.8896L323.259 75.2885L323.225 76.053L323.99 76.2525V76.9838L324.256 77.5156L324.921 77.7815L325.22 78.3134L325.486 78.8452L325.752 79.377L326.051 79.9089L326.616 80.2413L326.782 80.8396L327.38 81.172L327.347 81.9033L327.912 82.2689L328.211 82.8008L328.477 83.2994L328.976 83.6982L329.242 84.2633L329.541 84.7619L329.475 85.5264L330.04 85.8921L330.239 86.4571L330.837 86.7896L331.137 87.3214L331.103 88.0194L331.303 88.5845L332.134 88.8172V89.5152L332.732 89.8476L333.031 90.3462L332.931 91.1107L333.164 91.6426L333.895 91.9417L334.161 92.4736V93.1716L334.593 93.6037L334.992 94.0691L334.959 94.7671L335.591 95.0995L335.557 95.7976L336.023 96.2297L335.89 96.961L336.521 97.3266L336.621 97.9249L337.053 98.3903L337.452 98.8557L337.785 99.3542L337.951 99.9526L338.117 100.518L338.416 101.049V101.714L338.881 102.146V102.811L339.181 103.343L339.646 103.775L339.978 104.274L340.145 104.872L340.012 105.57L340.377 106.069L340.444 106.7L341.109 107.066L341.308 107.631L341.408 108.229L341.74 108.728L341.674 109.393L341.94 109.958L342.471 110.39L342.571 110.955L342.87 111.487L343.269 111.985L343.07 112.717L343.834 113.049L343.635 113.78L344.067 114.246L344.466 114.744L344.3 115.442L344.366 116.041L345.064 116.44L345.33 116.971L344.964 117.736L345.297 118.235L345.563 118.766L345.496 119.431L345.829 119.963L346.061 120.495L346.327 121.06L346.892 121.492L346.693 122.19L346.793 122.788L347.025 123.32L347.624 123.786L347.424 124.45L347.491 125.049L347.557 125.68L348.255 126.079L348.455 126.644L348.355 127.309L348.72 127.808L349.02 128.373L348.554 129.104L349.252 129.536L349.485 130.101L349.053 130.833L349.286 131.398L349.618 131.896L350.117 132.395L349.684 133.126L350.216 133.625L349.984 134.289L350.183 134.855L350.715 135.32L350.881 135.918L351.114 136.45L351.18 137.082L351.047 137.713L351.413 138.245L351.247 138.877L351.479 139.442L351.346 140.106L351.513 140.672L351.612 141.27L351.945 141.802L352.177 142.367L352.51 142.899L352.643 143.497L352.177 144.195L352.61 144.694L352.676 145.292L352.576 145.923L352.676 146.522L352.842 147.087L353.075 147.652L353.407 148.217L353.308 148.849V149.447L353.806 149.979L353.607 150.61V151.209L353.64 151.807L354.205 152.339L353.839 152.97L354.139 153.535L353.773 154.2L354.338 154.732L354.272 155.33L354.405 155.929L354.305 156.527L354.371 157.125L354.537 157.724L354.936 158.289L354.504 158.92L354.604 159.519L354.637 160.117L355.069 160.682L355.236 161.247L354.704 161.912L354.936 162.477L355.269 163.042L355.036 163.674L354.936 164.272L355.169 164.87L355.435 165.435L355.335 166.034L355.701 166.632L355.568 167.23L355.435 167.829L355.668 168.427L355.136 169.058L355.302 169.624L355.501 170.222L355.302 170.82L355.734 171.419L355.634 172.017L355.734 172.615L355.801 173.213L355.834 173.812L355.668 174.41L355.867 175.008L355.435 175.607L355.634 176.205L355.801 176.803L355.867 177.402L355.634 178Z" fill="#64B4FA"/>
</svg>
