<?xml version="1.0" encoding="UTF-8" standalone="no"?><!DOCTYPE svg PUBLIC "-//W3C//DTD SVG 1.1//EN" "http://www.w3.org/Graphics/SVG/1.1/DTD/svg11.dtd"><svg width="100%" height="100%" viewBox="0 0 768 81" version="1.1" xmlns="http://www.w3.org/2000/svg" xmlns:xlink="http://www.w3.org/1999/xlink" xml:space="preserve" xmlns:serif="http://www.serif.com/" style="fill-rule:evenodd;clip-rule:evenodd;stroke-linejoin:round;stroke-miterlimit:1.41421;"><path d="M330.665,80.384c0.94,-5.02 2.25,-9.974 3.922,-14.817c17.653,-51.104 70.855,-77.975 118.732,-59.969c32.182,12.103 53.809,41.373 59.186,74.786l-181.84,0Z" style="fill:#fbc000;"/><path d="M768,80.384l-768,0l0,-1.105c30.921,-6.281 82.963,-17.016 135.989,-28.687c85.775,-18.879 2.681,-1.153 90.349,-20.376c134.558,-29.505 164.843,33.142 215.099,33.035c50.257,-0.108 62.956,2.554 109.079,-33.035c46.123,-35.589 136.159,-20.836 175.156,0c16.617,8.879 29.858,15.439 42.328,22.05l0,28.118Z" style="fill:#172381;"/><path d="M0,54.806c0,0 42.608,-33.15 214.157,0c0,0 106.952,24.737 228.135,5.772c121.183,-18.965 94.419,-32.888 245.19,2.656c0,0 30.245,4.714 80.518,8.56l0,8.59l-768,0l0,-25.578Z" style="fill:#2a8bfb;"/></svg>