<svg xmlns="http://www.w3.org/2000/svg" viewBox="0 0 173 30"><g fill="none"><path fill="#17191B" d="M49.6820386,23.635987 C47.5077103,23.635987 45.4110369,22.9237303 44.0909091,21.7281567 L45.5145764,19.387885 C46.4464312,20.2527682 48.2842561,21.0922133 49.8373477,21.0922133 C51.2610148,21.0922133 51.9340211,20.5580209 51.9340211,19.7948888 C51.9340211,17.7853076 44.5309518,19.4387606 44.5309518,14.6055906 C44.5309518,12.545134 46.3428918,10.7390548 49.6561536,10.7390548 C51.7528272,10.7390548 53.4353429,11.4513113 54.677816,12.4179453 L53.3576884,14.7073417 C52.6070274,13.9442096 51.1833603,13.2828285 49.6561536,13.2828285 C48.4654502,13.2828285 47.6889044,13.7915832 47.6889044,14.4784019 C47.6889044,16.2844813 55.1178587,14.758217 55.1178587,19.7185757 C55.1178587,21.9825342 53.1506095,23.635987 49.6820386,23.635987 Z M68.3450213,23.3311019 L65.0317593,23.3311019 L65.0317593,22.0337394 C64.1775591,23.0512786 62.7021221,23.6363636 61.0713762,23.6363636 C59.0782421,23.6363636 56.7486048,22.3135627 56.7486048,19.5662069 C56.7486048,16.6662204 59.0782421,15.5978043 61.0713762,15.5978043 C62.7538919,15.5978043 64.2034439,16.1320123 65.0317593,17.0986744 L65.0317593,15.5469272 C65.0317593,14.3004419 63.9445953,13.4864104 62.2879644,13.4864104 C60.9678368,13.4864104 59.7253634,13.99518 58.6899691,14.9364038 L57.3957262,12.6723791 C58.9229329,11.3241398 60.8901821,10.7390548 62.8574313,10.7390548 C65.7306506,10.7390548 68.3450213,11.8583478 68.3450213,15.3942964 L68.3450213,23.3311019 Z M62.3915039,21.4486545 C63.4527831,21.4486545 64.4881774,21.0925157 65.0317593,20.3802384 L65.0317593,18.8539295 C64.4881774,18.1416522 63.4527831,17.7600749 62.3915039,17.7600749 C61.097261,17.7600749 60.0359817,18.4469139 60.0359817,19.617084 C60.0359817,20.7872541 61.097261,21.4486545 62.3915039,21.4486545 Z M74.8680055,23.3311019 L71.5806287,23.3311019 L71.5806287,6.36363636 L74.8680055,6.36363636 L74.8680055,23.3311019 Z M84.0053606,23.6363636 C80.2002864,23.6363636 77.3270671,21.1179543 77.3270671,17.17499 C77.3270671,13.6136029 80.0190923,10.7390548 83.7982817,10.7390548 C87.5515862,10.7390548 90.0624173,13.4864104 90.0624173,17.4802517 L90.0624173,18.2434062 L80.7697533,18.2434062 C81.0027169,19.7442763 82.2451903,20.9907618 84.3677486,20.9907618 C85.4290277,20.9907618 86.8785799,20.5583076 87.6810104,19.7951534 L89.1564474,21.9319856 C87.9139742,23.0512786 85.9467248,23.6363636 84.0053606,23.6363636 Z M86.9044647,16.00482 C86.8009252,14.8346499 85.9726098,13.3846566 83.7982817,13.3846566 C81.7533779,13.3846566 80.8732927,14.783773 80.7438683,16.00482 L86.9044647,16.00482 Z M96.9477897,23.6363636 C94.7734616,23.6363636 92.6767881,22.9240863 91.3566602,21.7284777 L92.7803275,19.3881377 C93.7121824,20.2530459 95.5500074,21.0925157 97.1030988,21.0925157 C98.5267661,21.0925157 99.1997724,20.5583076 99.1997724,19.7951534 C99.1997724,17.7855134 91.7967029,19.4390146 91.7967029,14.6057036 C91.7967029,12.5451868 93.6086429,10.7390548 96.9219047,10.7390548 C99.0185783,10.7390548 100.701094,11.4513321 101.943567,12.4179943 L100.62344,14.7074576 C99.8727787,13.9443032 98.4491115,13.2829027 96.9219047,13.2829027 C95.7312013,13.2829027 94.9546556,13.7916723 94.9546556,14.4785111 C94.9546556,16.2846431 102.38361,14.7583345 102.38361,19.7188379 C102.38361,21.9828625 100.416361,23.6363636 96.9477897,23.6363636 Z M119.286422,23.3311019 L115.766082,23.3311019 L113.125826,14.9618422 L110.485571,23.3311019 L106.96523,23.3311019 L103.160156,11.0443165 L106.576957,11.0443165 L108.906594,19.3118223 L111.650389,11.0443165 L114.575378,11.0443165 L117.319173,19.3118223 L119.64881,11.0443165 L123.091496,11.0443165 L119.286422,23.3311019 Z M136.473968,23.3311019 L133.186591,23.3311019 L133.186591,15.8521891 C133.186591,14.1478109 132.280621,13.6136029 130.882839,13.6136029 C129.588596,13.6136029 128.579087,14.3258803 128.035504,15.0381578 L128.035504,23.3311019 L124.722243,23.3311019 L124.722243,6.36363636 L128.035504,6.36363636 L128.035504,12.6215022 C128.837935,11.705717 130.365142,10.7390548 132.410045,10.7390548 C135.153841,10.7390548 136.473968,12.2144866 136.473968,14.6057036 L136.473968,23.3311019 Z M150.555331,23.3311019 L147.242069,23.3311019 L147.242069,22.0337394 C146.387869,23.0512786 144.912432,23.6363636 143.281686,23.6363636 C141.288552,23.6363636 138.958915,22.3135627 138.958915,19.5662069 C138.958915,16.6662204 141.288552,15.5978043 143.281686,15.5978043 C144.964202,15.5978043 146.413754,16.1320123 147.242069,17.0986744 L147.242069,15.5469272 C147.242069,14.3004419 146.154905,13.4864104 144.498274,13.4864104 C143.178147,13.4864104 141.935673,13.99518 140.900279,14.9364038 L139.606036,12.6723791 C141.133243,11.3241398 143.100492,10.7390548 145.067741,10.7390548 C147.940961,10.7390548 150.555331,11.8583478 150.555331,15.3942964 L150.555331,23.3311019 Z M144.601814,21.4486545 C145.663093,21.4486545 146.698487,21.0925157 147.242069,20.3802384 L147.242069,18.8539295 C146.698487,18.1416522 145.663093,17.7600749 144.601814,17.7600749 C143.307571,17.7600749 142.246292,18.4469139 142.246292,19.617084 C142.246292,20.7872541 143.307571,21.4486545 144.601814,21.4486545 Z M157.078315,23.3311019 L153.790938,23.3311019 L153.790938,6.36363636 L157.078315,6.36363636 L157.078315,23.3311019 Z M166.215671,23.6363636 C162.410597,23.6363636 159.537377,21.1179543 159.537377,17.17499 C159.537377,13.6136029 162.229403,10.7390548 166.008592,10.7390548 C169.761895,10.7390548 172.272727,13.4864104 172.272727,17.4802517 L172.272727,18.2434062 L162.980063,18.2434062 C163.213026,19.7442763 164.455501,20.9907618 166.578059,20.9907618 C167.639337,20.9907618 169.088891,20.5583076 169.89132,19.7951534 L171.366758,21.9319856 C170.124285,23.0512786 168.157035,23.6363636 166.215671,23.6363636 Z M169.114775,16.00482 C169.011235,14.8346499 168.182919,13.3846566 166.008592,13.3846566 C163.963688,13.3846566 163.083603,14.783773 162.954178,16.00482 L169.114775,16.00482 Z"/><path fill="#1C96F8" d="M35.4545381,16.0083496 C35.4567672,17.810397 34.9526345,19.576422 34.0002127,21.1029898 C31.3917592,26.3208968 25.1021413,30 17.755763,30 C16.1755025,30 14.5038257,29.7714174 12.9616554,29.4494868 C11.4194849,29.1275563 9.81018071,28.5511931 8.40941936,27.8300208 C7.24788033,27.2300999 6.16022168,26.4954662 5.16867122,25.6411327 C1.45108333,22.4232638 0.000328945544,17.9480707 0.854021852,12.6681712 C0.973053271,11.936946 1.23492243,11.2251087 1.4967914,10.5309833 C1.74866168,9.86390498 2.10361326,9.20951239 1.94315893,8.4778087 C1.79532213,7.80714005 1.27610725,7.28151967 0.914489945,6.72286848 C0.258865146,5.71112124 -0.426517604,3.52893497 0.335283165,2.41665918 C1.426801,0.821128318 3.67625583,1.90228826 4.54280418,3.14692678 C4.97822103,3.77187887 5.73716504,5.27573716 5.20128575,6.39950185 C5.87452734,5.71279658 7.24386426,5.36884563 8.16302451,5.36549475 C9.76899569,5.35998945 11.3183081,6.14554793 12.2379446,7.46917289 C13.1716267,8.81362163 12.8345298,10.1315022 11.1957058,10.6683723 C10.3760558,10.9371663 9.45094398,10.8967156 8.60629737,10.800974 C7.43217178,10.6686117 5.78168282,9.42971774 4.89251843,10.7631563 C4.34449798,11.5850962 4.05906079,12.7806673 4.14024015,13.7620167 C4.35306828,16.3269293 7.43407636,17.6345176 9.69114929,17.2048781 C12.1341492,16.7400535 13.5403858,14.9951661 14.9397187,13.0913482 C17.1060896,10.1444274 19.8940426,7.47443875 23.3978502,6.72621955 C24.2109784,6.50547208 25.0495468,6.39368443 25.8917955,6.3937575 C31.1734556,6.3937575 35.4545381,10.6982915 35.4545381,16.0083496 Z M28.4992967,4.11582867 C26.9995015,3.30082988 25.3330622,3.23811911 23.7001899,3.62682924 C22.0575569,4.01841174 20.3316019,5.2642469 18.6151694,5.12925144 C16.8677889,4.9913838 16.6113954,3.08206063 17.4327118,1.85465576 C19.2343707,-0.836396131 23.5299749,-0.235857944 25.7718119,1.36422044 C26.338716,1.76880061 26.8611191,2.2329753 27.3301706,2.74888063 C27.6891692,3.14405325 28.0257899,3.85924163 28.4992967,4.11582867 Z"/></g></svg>